<?xml version="1.0" encoding="UTF-8" standalone="no"?>
<svg
   xmlns:osb="http://www.openswatchbook.org/uri/2009/osb"
   xmlns:dc="http://purl.org/dc/elements/1.1/"
   xmlns:cc="http://creativecommons.org/ns#"
   xmlns:rdf="http://www.w3.org/1999/02/22-rdf-syntax-ns#"
   xmlns:svg="http://www.w3.org/2000/svg"
   xmlns="http://www.w3.org/2000/svg"
   version="1.1"
   id="svg2"
   viewBox="0 0 512.00002 511.99999"
   height="512"
   width="512">
  <title
     id="title4658">meteor-ionic-logo</title>
  <defs
     id="defs4">
    <linearGradient
       osb:paint="solid"
       id="linearGradient4556">
      <stop
         id="stop4558"
         offset="0"
         style="stop-color:#000000;stop-opacity:1;" />
    </linearGradient>
    <linearGradient
       osb:paint="gradient"
       id="linearGradient4534">
      <stop
         id="stop4536"
         offset="0"
         style="stop-color:#000000;stop-opacity:1;" />
      <stop
         id="stop4538"
         offset="1"
         style="stop-color:#000000;stop-opacity:0;" />
    </linearGradient>
    <linearGradient
       osb:paint="solid"
       id="linearGradient4278">
      <stop
         id="stop4280"
         offset="0"
         style="stop-color:#000000;stop-opacity:1;" />
    </linearGradient>
    <filter
       height="1.0239159"
       y="-0.011957938"
       width="1.0240847"
       x="-0.012042359"
       id="filter4520"
       style="color-interpolation-filters:sRGB">
      <feGaussianBlur
         id="feGaussianBlur4522"
         stdDeviation="0.68655846" />
    </filter>
  </defs>
  <metadata
     id="metadata7">
    <rdf:RDF>
      <cc:Work
         rdf:about="">
        <dc:format>image/svg+xml</dc:format>
        <dc:type
           rdf:resource="http://purl.org/dc/dcmitype/StillImage" />
        <dc:title>meteor-ionic-logo</dc:title>
        <dc:creator>
          <cc:Agent>
            <dc:title>Joey Andres</dc:title>
          </cc:Agent>
        </dc:creator>
        <cc:license
           rdf:resource="http://artlibre.org/licence/lal" />
      </cc:Work>
      <cc:License
         rdf:about="http://artlibre.org/licence/lal">
        <cc:permits
           rdf:resource="http://creativecommons.org/ns#Reproduction" />
        <cc:permits
           rdf:resource="http://creativecommons.org/ns#Distribution" />
        <cc:permits
           rdf:resource="http://creativecommons.org/ns#DerivativeWorks" />
        <cc:requires
           rdf:resource="http://creativecommons.org/ns#ShareAlike" />
        <cc:requires
           rdf:resource="http://creativecommons.org/ns#Notice" />
        <cc:requires
           rdf:resource="http://creativecommons.org/ns#Attribution" />
      </cc:License>
    </rdf:RDF>
  </metadata>
  <g
     transform="translate(0,-540.3622)"
     id="layer1">
    <path
       transform="matrix(1.9280305,-0.94760961,0.94760961,1.9280305,-1335.9009,-145.2229)"
       id="path3474"
       d="m 467.23722,821.29575 c -19.07568,-4.3655 -36.59921,-17.79617 -45.8702,-35.15655 -6.04663,-11.32262 -7.03759,-15.83874 -7.03759,-32.07269 0,-16.62823 1.02337,-21.57058 6.72615,-32.48406 11.04557,-21.13807 32.60163,-35.17317 56.64222,-36.87962 20.97116,-1.48858 41.30084,6.75698 55.88175,22.66518 6.76234,7.37793 13.8782,20.73287 16.25695,30.51085 1.97689,8.12608 1.68614,26.3994 -0.53844,33.84011 -6.99794,23.40651 -26.38524,42.76437 -48.60058,48.52676 -8.67618,2.25049 -25.85852,2.7897 -33.46026,1.05002 z"
       style="opacity:1;fill:none;fill-opacity:1;fill-rule:nonzero;stroke:none;filter:url(#filter4520)" />
    <path
       id="path3336"
       transform="translate(0,540.3622)"
       d="M 187.4375 65.806641 L 247.86328 129.45703 A 126.8096 126.8096 0 0 0 210.62305 137.59375 L 136.19141 68.908203 L 204.11719 140.45898 A 126.8096 126.8096 0 0 0 177.74414 156.2168 A 126.8096 126.8096 0 0 0 168.73438 164.15234 L 93.802734 94.763672 L 164.28125 168.60938 A 126.8096 126.8096 0 0 0 143.41016 197.98828 L 71.513672 130.57812 L 140.32227 204.23047 A 126.8096 126.8096 0 0 0 130.63672 237.37695 L 68.089844 178.73047 L 129.8418 244.83008 A 126.8096 126.8096 0 0 0 133.00586 286.41016 L 81.224609 237.98047 L 136.20703 297.16406 A 126.8096 126.8096 0 0 0 156.2168 334.25586 A 126.8096 126.8096 0 0 0 334.25586 355.7832 A 126.8096 126.8096 0 0 0 355.7832 177.74414 A 126.8096 126.8096 0 0 0 305.51758 139.41016 L 245.95508 84.748047 L 293.57031 135.03125 A 126.8096 126.8096 0 0 0 256.27734 129.33008 L 187.4375 65.806641 z "
       style="fill:#d44f4f;fill-opacity:1;fill-rule:evenodd;stroke:none;stroke-opacity:1" />
    <g
       id="g5008"
       transform="matrix(1.2248815,0,0,1.2248815,-70.464195,-172.61675)"
       style="fill:#d44f4f;fill-opacity:1;stroke:none" />
    <path
       id="path4814"
       d="m 254.625,543.67969 c -16.78257,0.10477 -33.80152,1.89393 -50.85742,5.49804 C 67.320324,578.01066 -20.018469,712.14845 8.8144531,848.5957 37.647387,985.04295 171.78517,1072.3798 308.23242,1043.5469 444.67967,1014.714 532.01846,880.57616 503.18555,744.12891 477.95673,624.73756 372.10302,542.94631 254.625,543.67969 Z m 0.10352,11.92969 c 111.98485,-0.7364 212.71211,77.12188 236.77343,190.98828 C 519.0006,876.73068 435.89669,1004.3646 305.76367,1031.8633 175.63065,1059.3619 47.996709,976.25997 20.498047,846.12695 -7.0006039,715.99393 76.103303,588.35998 206.23633,560.86133 c 16.26663,-3.43733 32.49435,-5.14676 48.49219,-5.25195 z"
       style="color:#000000;font-style:normal;font-variant:normal;font-weight:normal;font-stretch:normal;font-size:medium;line-height:normal;font-family:sans-serif;text-indent:0;text-align:start;text-decoration:none;text-decoration-line:none;text-decoration-style:solid;text-decoration-color:#000000;letter-spacing:normal;word-spacing:normal;text-transform:none;direction:ltr;block-progression:tb;writing-mode:lr-tb;baseline-shift:baseline;text-anchor:start;white-space:normal;clip-rule:nonzero;display:inline;overflow:visible;visibility:visible;opacity:1;isolation:auto;mix-blend-mode:normal;color-interpolation:sRGB;color-interpolation-filters:linearRGB;solid-color:#000000;solid-opacity:1;fill:#d44f4f;fill-opacity:1;fill-rule:nonzero;stroke:none;stroke-width:11.94149685;stroke-linecap:butt;stroke-linejoin:miter;stroke-miterlimit:4;stroke-dasharray:none;stroke-dashoffset:0;stroke-opacity:1;color-rendering:auto;image-rendering:auto;shape-rendering:auto;text-rendering:auto;enable-background:accumulate" />
  </g>
  <metadata
     id="metadata6036">
    <rdf:RDF>
      <cc:Work
         rdf:about="">
        <dc:title></dc:title>
      </cc:Work>
    </rdf:RDF>
  </metadata>
</svg>
